<svg xmlns="http://www.w3.org/2000/svg" width="95" height="19" fill="none" viewBox="0 0 95 19">
    <path fill="#EB5E00" d="M14.625.795V4.45H9.56V19H5.624V4.451H.571V.795h14.054zm15.184 0V4.45h-5.066V19h-3.935V4.451h-5.053V.795h14.054zm9.521 0c1.32 0 2.552.228 3.694.685 1.151.458 2.129 1.088 2.933 1.892.813.796 1.447 1.756 1.904 2.882.466 1.126.699 2.336.699 3.63 0 1.304-.233 2.523-.699 3.657-.465 1.126-1.104 2.09-1.917 2.895-.804.795-1.781 1.421-2.932 1.878-1.143.457-2.37.686-3.682.686h-6.88V.795h6.88zm-.089 14.549c1.557 0 2.827-.508 3.809-1.524.99-1.024 1.485-2.336 1.485-3.935 0-1.6-.495-2.903-1.485-3.91-.982-1.016-2.252-1.524-3.809-1.524h-2.856v10.893h2.856zm16.415 0h6.983V19H51.72V.795h3.935v14.549zM77.391 19l-1.27-3.453h-7.249L67.628 19H63.45L70.586.795h3.707L81.656 19h-4.265zM72.478 5.606l-2.374 6.513h4.773l-2.4-6.513zm15.424 9.738h6.983V19H83.967V.795h3.935v14.549z"/>
</svg>
